<?xml version="1.0" standalone="no"?>
<!DOCTYPE svg PUBLIC "-//W3C//DTD SVG 20010904//EN"
 "http://www.w3.org/TR/2001/REC-SVG-20010904/DTD/svg10.dtd">
<svg version="1.0" xmlns="http://www.w3.org/2000/svg"
 width="3032.000000pt" height="3032.000000pt" viewBox="0 0 3032.000000 3032.000000"
 preserveAspectRatio="xMidYMid meet">
<metadata>
Created by potrace 1.14, written by Peter Selinger 2001-2017
</metadata>
<g transform="translate(0.000000,3032.000000) scale(0.100000,-0.100000)"
fill="#000000" stroke="none">
<path d="M18618 29875 c-2 -2 -31 -6 -65 -9 -35 -4 -68 -9 -75 -11 -7 -2 -24
-6 -38 -9 -43 -7 -152 -46 -220 -78 -164 -78 -333 -225 -436 -379 -27 -40 -51
-78 -54 -84 -5 -10 -61 -104 -80 -135 -5 -8 -75 -125 -155 -260 -80 -135 -150
-252 -155 -260 -6 -8 -13 -23 -16 -32 -4 -10 -10 -18 -15 -18 -5 0 -9 -5 -9
-10 0 -6 -11 -27 -24 -48 -23 -36 -352 -586 -386 -647 -15 -26 -205 -344 -229
-385 -26 -42 -107 -177 -116 -192 -5 -10 -39 -66 -75 -125 -35 -60 -69 -117
-75 -128 -6 -11 -54 -90 -105 -175 -51 -85 -99 -164 -105 -175 -6 -11 -98
-166 -205 -345 -107 -179 -200 -334 -206 -345 -6 -11 -100 -168 -209 -350
-108 -181 -207 -346 -218 -365 -25 -44 -41 -71 -96 -162 -151 -252 -416 -696
-425 -713 -15 -27 -143 -241 -171 -285 -12 -19 -43 -71 -68 -115 -26 -44 -51
-87 -57 -95 -39 -60 -330 -554 -330 -561 0 -5 -4 -9 -10 -9 -5 0 -10 -4 -10
-9 0 -5 -33 -65 -73 -133 -96 -160 -118 -199 -191 -343 -53 -104 -89 -179
-187 -402 -11 -23 -19 -48 -19 -55 0 -8 -4 -18 -8 -24 -12 -13 -121 -316 -128
-354 0 -3 -4 -12 -7 -20 -6 -15 -69 -241 -82 -295 -4 -16 -8 -37 -10 -45 -5
-18 -35 -156 -41 -185 -3 -17 -15 -88 -40 -240 -2 -16 -6 -41 -9 -55 -2 -14
-7 -52 -10 -85 -4 -33 -8 -73 -11 -90 -13 -103 -19 -266 -19 -520 0 -319 8
-462 40 -685 21 -149 24 -168 37 -230 6 -30 12 -62 13 -70 1 -8 7 -40 14 -70
6 -30 13 -64 15 -75 56 -269 199 -698 331 -990 36 -79 176 -356 203 -403 18
-29 32 -55 32 -58 0 -18 240 -384 329 -503 31 -40 61 -81 66 -89 6 -9 15 -22
22 -29 7 -8 29 -35 50 -61 144 -181 426 -477 577 -607 32 -27 78 -68 103 -90
25 -22 55 -47 67 -55 12 -8 28 -21 36 -29 32 -32 281 -212 390 -283 105 -69
335 -205 403 -239 187 -95 177 -87 172 -122 -5 -41 -13 -95 -25 -177 -6 -36
-12 -90 -15 -120 -2 -30 -7 -95 -12 -145 -16 -177 -8 -756 12 -905 2 -19 9
-78 16 -130 6 -52 13 -104 15 -115 2 -11 6 -36 9 -55 3 -19 7 -46 9 -60 3 -14
7 -36 9 -50 62 -351 201 -804 353 -1150 42 -94 198 -405 239 -475 19 -33 38
-67 42 -75 45 -94 398 -604 443 -640 3 -3 28 -32 54 -65 112 -140 357 -394
505 -525 41 -36 79 -69 85 -75 61 -53 149 -124 236 -190 58 -43 121 -90 140
-105 68 -51 330 -219 380 -243 8 -4 47 -26 85 -48 61 -35 383 -195 440 -219
11 -4 48 -20 81 -34 65 -27 71 -30 254 -96 322 -116 814 -228 1115 -255 39 -4
81 -8 95 -10 38 -6 165 -16 275 -21 157 -7 8212 -7 8285 1 240 24 479 139 659
316 51 52 141 163 141 176 0 3 6 14 14 22 25 28 83 153 110 237 26 81 27 83
23 350 -1 148 -6 279 -9 290 -19 65 -73 181 -202 436 -79 155 -304 603 -501
993 -704 1398 -990 1964 -1115 2211 -180 355 -304 558 -498 814 -52 69 -98
127 -101 130 -3 3 -21 23 -40 45 -121 143 -265 294 -412 430 -54 50 -219 192
-254 217 -5 5 -30 24 -55 43 -61 47 -57 44 -130 96 -105 75 -200 139 -205 139
-2 0 -35 20 -72 44 -37 24 -93 58 -123 75 -57 32 -430 217 -465 231 -11 4 -31
12 -45 19 -81 36 -379 143 -436 156 -10 2 -57 16 -104 29 -47 14 -148 39 -225
56 -77 17 -158 35 -180 40 -22 5 -60 12 -85 15 -25 2 -56 7 -69 10 -36 7 -166
24 -241 31 -36 3 -76 8 -90 10 -21 4 -513 17 -545 15 -86 -5 -515 -4 -515 2 0
5 -4 5 -10 2 -8 -5 -136 -6 -340 -4 -12 0 -360 0 -465 0 -11 0 -52 0 -92 -1
-40 0 -76 0 -80 1 -4 1 -12 1 -18 0 -8 -2 -100 -2 -140 0 -22 1 -181 0 -207
-2 -7 0 -59 0 -116 1 -56 0 -106 -2 -111 -5 -5 -3 -12 -2 -15 3 -2 4 -31 5
-64 2 -32 -3 -70 -3 -83 0 -13 4 -37 3 -54 0 -16 -3 -41 -4 -55 0 -14 3 -41 3
-61 0 -19 -4 -44 -4 -54 0 -10 4 -35 4 -55 0 -20 -4 -44 -4 -55 0 -10 3 -37 4
-59 0 -23 -3 -57 -3 -76 0 -19 3 -46 3 -60 -1 -14 -3 -34 -3 -44 1 -11 3 -39
3 -63 0 -23 -4 -43 -4 -43 -1 0 7 -99 6 -106 -2 -3 -2 -19 -2 -37 2 -18 4 -45
4 -62 1 -16 -3 -41 -3 -55 0 -14 4 -39 3 -57 -1 -18 -4 -34 -4 -37 -1 -4 3
-27 4 -54 3 -60 -2 -64 -2 -115 -1 -23 1 -47 1 -52 0 -6 -1 -12 -2 -15 -1 -18
7 -290 4 -290 -2 0 -5 -5 -5 -11 -1 -14 8 -134 8 -148 0 -6 -4 -11 -4 -11 1 0
7 -123 9 -140 2 -3 -1 -9 0 -15 1 -22 5 -124 2 -134 -5 -6 -3 -11 -3 -11 2 0
9 -132 8 -155 -1 -8 -3 -15 -2 -15 2 0 4 -33 6 -72 4 -40 -1 -80 -2 -88 -2 -8
0 -41 0 -72 0 -62 1 -65 5 -27 60 9 14 71 111 136 215 66 105 162 257 214 340
52 82 99 157 104 167 6 9 62 98 125 198 63 100 126 200 139 223 13 23 27 44
31 47 4 3 18 24 31 47 13 22 60 98 104 167 44 70 85 134 90 144 6 10 46 74 89
142 44 69 94 148 111 175 17 28 117 185 220 350 321 511 415 659 425 675 24
35 337 535 359 573 13 23 27 44 30 47 6 5 240 375 271 429 8 14 24 40 35 56
23 35 34 52 77 123 93 151 134 225 201 357 61 120 147 301 147 309 0 2 8 21
17 42 9 22 17 41 18 44 0 3 15 41 32 85 128 329 247 812 278 1130 4 33 8 76
11 95 24 192 24 734 0 915 -2 17 -7 59 -11 95 -4 36 -9 74 -11 85 -2 11 -6 39
-9 62 -5 46 -15 107 -20 132 -2 9 -13 63 -24 120 -40 198 -138 545 -182 646
-5 11 -22 57 -39 103 -89 245 -260 579 -438 852 -62 96 -224 323 -242 340 -3
3 -37 43 -75 90 -72 88 -105 126 -165 190 -19 21 -82 88 -140 150 -58 62 -121
130 -140 150 -34 36 -224 239 -290 310 -18 19 -87 93 -154 164 -66 71 -134
144 -151 162 -16 17 -78 84 -138 147 -59 63 -115 123 -125 134 -14 17 -158
170 -297 317 -16 18 -78 84 -137 147 -58 63 -124 132 -145 155 -21 22 -90 96
-153 164 -199 213 -217 230 -335 312 -95 66 -237 124 -377 153 -59 13 -271 27
-280 20z m323 -2953 c41 -43 124 -132 184 -196 61 -65 128 -137 150 -161 22
-23 92 -98 155 -166 63 -67 126 -135 140 -149 14 -15 75 -80 135 -145 61 -65
126 -135 145 -155 64 -67 125 -136 150 -170 14 -19 34 -45 45 -59 110 -138
254 -392 329 -581 10 -25 22 -54 26 -65 40 -97 113 -380 125 -480 3 -32 8 -62
10 -65 8 -13 19 -206 19 -340 0 -154 -7 -264 -25 -370 -6 -36 -12 -76 -14 -90
-15 -105 -67 -294 -122 -439 -77 -208 -149 -342 -373 -696 -73 -115 -148 -235
-167 -265 -19 -30 -52 -82 -73 -115 -22 -33 -49 -79 -61 -102 -13 -24 -26 -43
-30 -43 -3 0 -9 -8 -12 -17 -4 -10 -62 -106 -131 -213 -69 -107 -144 -226
-167 -265 -55 -90 -136 -217 -149 -232 -5 -7 -10 -14 -10 -17 0 -5 -59 -99
-129 -206 -20 -30 -41 -64 -47 -75 -6 -11 -50 -81 -97 -155 -47 -74 -128 -202
-179 -284 -135 -216 -152 -242 -388 -617 -118 -187 -222 -352 -231 -367 -9
-15 -60 -97 -114 -182 -54 -85 -147 -234 -208 -330 -60 -96 -124 -197 -142
-225 -43 -65 -495 -784 -509 -810 -41 -73 -113 -175 -124 -175 -7 0 -25 8 -40
19 -23 15 -125 80 -197 124 -11 6 -22 14 -25 17 -3 3 -41 32 -85 65 -290 216
-570 528 -766 855 -185 308 -338 715 -385 1020 -2 19 -9 58 -14 85 -38 199
-45 606 -16 815 2 14 7 48 10 75 4 28 9 57 11 65 2 8 6 32 9 52 29 195 135
519 248 756 68 144 97 195 417 731 133 222 241 407 241 412 0 5 5 9 10 9 6 0
10 4 10 9 0 5 23 46 50 90 28 44 50 83 50 86 0 3 19 35 43 72 24 38 68 110 98
161 30 51 59 100 64 110 6 9 64 107 129 217 117 196 248 415 266 445 5 8 37
62 71 120 35 58 114 190 176 294 62 103 113 192 113 197 0 5 5 9 10 9 6 0 10
4 10 9 0 4 65 117 145 250 80 134 145 244 145 246 0 2 12 23 28 47 15 24 32
52 39 63 6 11 89 150 185 309 95 159 176 297 181 305 8 18 273 461 284 477 15
20 33 49 40 64 4 8 57 98 118 200 61 102 114 193 118 203 3 9 10 17 15 17 5 0
42 -35 83 -78z m5589 -11576 c19 -3 55 -8 78 -11 147 -17 422 -89 587 -155
180 -72 422 -205 550 -302 155 -118 162 -125 310 -273 162 -161 308 -354 407
-535 31 -57 249 -488 871 -1722 l175 -348 -31 -1 c-232 -3 -6237 1 -6302 5
-173 11 -362 39 -525 77 -92 21 -326 93 -375 114 -16 7 -70 30 -120 51 -154
64 -419 210 -506 278 -14 12 -36 28 -49 36 -125 82 -388 324 -522 480 -103
121 -298 393 -298 417 0 4 -6 14 -14 22 -8 9 -41 68 -73 132 -122 237 -220
499 -269 719 -8 36 -17 74 -20 85 -2 11 -7 35 -10 54 -3 18 -8 43 -10 55 -2
11 -7 41 -10 66 -3 25 -7 56 -10 70 -17 94 -25 572 -10 635 2 11 5 29 5 41 l1
20 3068 -2 c1687 0 3083 -4 3102 -8z"/>
<path d="M1040 20452 c-380 -31 -724 -266 -895 -610 -83 -168 -116 -321 -110
-517 4 -176 33 -284 127 -480 40 -82 75 -154 79 -160 4 -5 159 -311 344 -680
186 -368 450 -893 587 -1165 138 -272 268 -531 290 -575 22 -44 44 -87 48 -97
5 -9 117 -229 248 -490 132 -260 255 -500 274 -533 19 -33 41 -71 49 -85 40
-70 210 -326 272 -409 157 -213 354 -433 549 -616 119 -112 147 -136 263 -229
61 -48 117 -93 125 -99 8 -7 44 -33 80 -57 36 -25 67 -48 70 -51 7 -8 162
-109 167 -109 2 0 23 -13 46 -28 112 -76 413 -232 599 -311 230 -97 494 -186
721 -240 145 -35 288 -65 367 -76 19 -3 49 -8 65 -10 17 -3 53 -7 80 -10 28
-4 61 -8 75 -10 14 -3 56 -7 95 -11 38 -3 88 -8 110 -11 22 -3 1209 -6 2639
-8 1429 -2 2600 -6 2602 -8 3 -2 -38 -71 -89 -153 -52 -82 -130 -207 -175
-279 -45 -71 -86 -135 -92 -142 -5 -7 -10 -15 -10 -18 0 -3 -22 -39 -50 -80
-27 -41 -50 -79 -50 -85 0 -5 -4 -10 -10 -10 -5 0 -10 -4 -10 -9 0 -7 -161
-268 -210 -341 -6 -8 -47 -73 -91 -145 -44 -71 -91 -146 -104 -165 -76 -115
-455 -724 -455 -731 0 -5 -4 -9 -8 -9 -5 0 -16 -15 -25 -32 -10 -18 -25 -45
-35 -60 -135 -213 -284 -450 -312 -494 -58 -94 -72 -116 -163 -260 -49 -76
-94 -148 -100 -158 -157 -250 -499 -794 -504 -801 -5 -6 -17 -26 -27 -45 -11
-19 -22 -37 -25 -40 -15 -13 -201 -326 -201 -339 0 -5 -4 -11 -8 -13 -12 -5
-162 -313 -221 -455 -169 -401 -286 -849 -336 -1280 -35 -300 -39 -693 -10
-1013 10 -109 33 -262 61 -410 103 -543 306 -1080 571 -1515 7 -11 15 -27 19
-35 24 -50 298 -443 339 -486 5 -6 26 -30 45 -54 19 -24 40 -48 45 -54 6 -6
25 -29 44 -51 30 -35 170 -187 271 -295 19 -20 68 -73 109 -116 40 -43 108
-115 150 -160 67 -71 218 -233 311 -334 18 -19 88 -93 155 -165 67 -71 138
-146 156 -166 34 -36 213 -229 278 -298 18 -20 81 -87 140 -150 116 -124 121
-130 296 -317 138 -148 339 -351 375 -377 100 -74 245 -141 384 -179 69 -19
107 -22 256 -22 186 0 228 7 390 66 130 47 273 139 375 242 111 111 106 105
530 816 103 173 195 327 204 342 9 15 90 152 181 304 91 152 174 291 185 310
11 19 72 120 135 226 63 106 120 202 126 213 6 11 23 40 39 65 16 25 34 54 40
65 20 36 337 569 360 605 13 19 60 98 106 175 46 77 89 149 96 160 6 11 19 34
27 50 9 17 34 59 56 94 22 34 40 67 40 72 0 5 5 9 10 9 6 0 10 5 10 10 0 6 17
39 39 73 21 34 145 242 276 462 130 220 245 411 255 425 9 14 20 35 24 48 4
12 12 22 17 22 5 0 9 4 9 9 0 5 24 49 54 98 78 129 330 552 353 593 23 40 188
317 203 340 5 8 19 33 31 54 11 21 25 44 30 50 8 9 233 384 289 481 17 30 92
156 110 185 104 169 294 553 378 765 91 227 198 566 236 745 3 14 15 66 26
115 11 50 22 101 24 115 27 169 46 294 51 335 3 28 7 68 10 90 29 251 34 662
10 925 -1 19 -6 73 -10 120 -4 47 -9 87 -10 90 -2 3 -6 34 -10 69 -4 34 -9 72
-11 84 -3 12 -7 36 -9 52 -8 54 -14 89 -25 145 -7 30 -14 69 -16 85 -3 17 -12
57 -21 90 -8 33 -16 67 -18 75 -23 111 -118 426 -171 563 -19 51 -36 97 -38
102 -24 82 -184 429 -276 596 -100 181 -286 480 -353 564 -4 6 -35 46 -68 90
-33 44 -68 89 -77 100 -9 11 -35 43 -57 70 -22 28 -44 55 -50 61 -5 7 -37 43
-69 80 -71 82 -402 412 -470 469 -26 22 -60 50 -75 63 -14 13 -39 33 -55 45
-15 12 -42 34 -60 48 -17 14 -87 67 -156 117 -69 51 -130 96 -137 102 -7 5
-14 10 -16 10 -2 0 -44 26 -93 58 -49 33 -127 81 -174 108 -47 27 -86 52 -88
56 -2 5 -10 8 -19 8 -8 0 -27 8 -41 18 -15 10 -70 40 -122 66 -52 27 -96 49
-98 50 -1 2 5 47 13 102 9 54 18 124 20 154 3 30 8 71 10 90 22 171 32 563 20
770 -8 132 -15 234 -20 265 -2 17 -7 55 -10 85 -11 103 -16 135 -36 250 -35
205 -85 421 -135 587 -14 45 -27 90 -29 100 -11 55 -144 407 -213 563 -44 101
-146 305 -197 396 -30 53 -55 98 -55 100 0 1 -34 58 -76 126 -114 183 -264
396 -379 535 -5 7 -15 18 -20 25 -14 18 -113 134 -155 182 -137 157 -409 414
-624 588 -277 226 -710 492 -1031 635 -38 17 -90 40 -115 51 -178 79 -436 169
-665 231 -186 51 -171 48 -360 85 -242 47 -429 72 -710 92 -85 6 -8250 12
-8325 6z m8220 -2165 c19 -3 67 -8 105 -12 68 -7 306 -48 375 -65 355 -87 680
-232 994 -443 38 -25 202 -152 231 -178 17 -15 41 -37 55 -49 120 -103 276
-273 397 -430 50 -66 173 -246 173 -254 0 -2 18 -33 39 -68 88 -144 178 -343
242 -533 11 -33 23 -67 26 -75 3 -8 7 -19 8 -25 2 -5 12 -41 23 -80 22 -72 69
-294 78 -368 3 -23 7 -53 10 -67 17 -101 25 -572 11 -640 -3 -14 -6 -34 -6
-45 -1 -20 -8 -20 -3024 -19 -1662 1 -3058 4 -3102 8 -68 5 -144 17 -280 42
-199 36 -468 133 -675 241 -100 53 -312 187 -341 216 -8 7 -32 27 -54 43 -63
46 -103 82 -205 185 -125 126 -144 147 -229 258 -142 187 -138 179 -678 1251
-193 382 -393 778 -444 880 -52 102 -99 196 -105 210 l-11 25 3176 -2 c1747
-1 3192 -4 3211 -6z m4160 -5949 c0 -5 5 -8 11 -8 23 0 224 -143 388 -275 30
-24 290 -284 311 -311 8 -10 42 -53 75 -94 75 -94 105 -134 159 -214 59 -88
136 -220 136 -234 0 -5 4 -12 8 -14 25 -10 236 -507 223 -526 -1 -1 6 -16 14
-32 9 -17 13 -30 11 -30 -3 0 -1 -12 5 -27 6 -16 12 -35 14 -44 2 -8 10 -44
19 -80 13 -56 22 -99 41 -198 2 -13 7 -49 11 -80 3 -31 8 -65 10 -76 24 -125
23 -527 -1 -715 -35 -271 -122 -588 -232 -840 -86 -198 -85 -195 -518 -920
-71 -118 -134 -224 -139 -235 -6 -11 -110 -184 -230 -385 -121 -201 -227 -378
-236 -395 -19 -33 -184 -311 -200 -335 -5 -8 -32 -53 -60 -100 -28 -47 -55
-92 -60 -100 -25 -40 -170 -283 -170 -285 0 -1 -25 -42 -55 -91 -31 -49 -60
-101 -66 -116 -6 -16 -15 -28 -20 -28 -5 0 -9 -4 -9 -9 0 -6 -39 -74 -86 -153
-48 -79 -98 -163 -112 -188 -13 -25 -31 -52 -38 -61 -8 -8 -14 -19 -14 -23 0
-4 -8 -20 -19 -34 -10 -15 -27 -43 -38 -62 -40 -72 -246 -416 -264 -442 -10
-15 -19 -29 -19 -32 0 -2 -64 -111 -143 -243 -79 -131 -178 -296 -221 -368
-42 -71 -82 -137 -87 -145 -5 -8 -63 -107 -129 -218 -67 -112 -132 -222 -147
-244 l-25 -41 -57 60 c-31 33 -102 109 -157 169 -56 60 -117 125 -135 144 -40
42 -271 288 -320 341 -59 64 -252 270 -320 343 -36 39 -81 89 -101 111 -74 85
-218 285 -218 303 0 6 -4 12 -8 14 -8 3 -36 50 -104 178 -72 134 -187 451
-213 588 -3 15 -8 41 -11 57 -3 17 -9 48 -14 70 -9 42 -15 94 -29 234 -7 85
-6 375 2 441 3 19 8 62 12 95 9 77 41 242 64 325 92 335 171 497 480 983 31
49 61 96 66 105 6 9 39 63 75 120 36 56 72 114 80 127 8 13 78 124 155 246
158 250 175 278 334 532 63 100 129 205 147 232 17 28 98 156 179 285 81 129
184 292 229 363 44 70 88 138 96 151 18 29 96 156 125 202 11 18 89 142 173
276 85 133 196 311 248 393 52 83 99 157 104 165 6 8 109 173 230 365 121 193
224 357 230 365 28 41 430 683 430 686 0 2 8 13 17 23 16 20 17 20 65 -7 26
-15 48 -30 48 -34z"/>
</g>
</svg>
