<svg width="361" height="58" viewBox="0 0 361 58" fill="none" xmlns="http://www.w3.org/2000/svg">
<path d="M198.02 37.0854C198.02 37.3509 197.808 37.5632 197.701 37.6694C197.064 38.3065 196.958 38.4126 196.958 38.7312V56.1441H191.012V53.7551H162.238V56.7281H156.292V36.5014L162.504 37.0854C162.982 37.1385 163.353 37.3509 163.353 37.7225C163.353 38.0941 163.035 38.3595 162.875 38.4657C162.238 38.9435 162.238 38.9966 162.238 39.1559V48.0747H173.44V33.1569H157.673V14.6821L164.043 15.2661C164.256 15.2661 164.627 15.4785 164.627 15.7439C164.627 16.0624 164.309 16.2748 164.15 16.381C163.619 16.6995 163.566 17.018 163.566 17.1242V27.4233H173.44V11.603L180.448 12.5055C180.766 12.5586 181.138 12.7179 181.138 13.0895C181.138 13.4611 180.872 13.5673 180.607 13.7266C180.235 13.8858 179.758 14.1513 179.758 14.4698V27.4233H189.685V14.7883L196.162 15.213C196.533 15.213 196.905 15.3723 196.905 15.6908C196.905 16.0094 196.587 16.2217 196.533 16.2748C195.949 16.6995 195.578 17.018 195.578 17.602V33.1569H179.758V48.0747H191.012V36.0767L197.277 36.5545C197.701 36.6076 198.02 36.8731 198.02 37.0854Z" fill="#3B2502"/>
<path d="M255.992 52.9057L250.737 56.7812C241.181 51.2069 239.004 46.2697 237.942 37.8817H236.137V49.1896C237.836 48.871 239.323 48.5525 240.968 48.1809L240.225 53.4897C235.076 54.4453 234.969 54.4984 229.926 55.4009C228.864 55.5602 228.758 55.6132 228.386 55.9318C227.643 56.675 227.59 56.7281 227.165 56.7281C226.9 56.7281 226.475 56.675 226.263 55.4009L225.413 50.5699C227.59 50.3044 228.28 50.2513 230.404 49.9859V37.8817H227.643V32.4136H230.404V12.3994H254.028V17.602H236.137V19.2477H251.48V23.9195H236.137V25.6714H251.48V30.3963H236.137V32.4136H254.824V37.8817H251.851L254.134 39.7398C254.347 39.9522 255.09 40.5362 255.09 41.067C255.09 41.5979 254.559 41.651 254.347 41.651C253.338 41.7572 253.019 41.8103 252.807 42.0757C250.312 44.7301 249.94 45.0487 247.445 47.2784C250.206 50.039 252.648 51.4193 255.992 52.9057ZM226.635 32.2013C226.475 37.3509 225.997 47.3315 224.246 52.4279C222.918 56.3565 219.574 56.5688 213.787 56.6219L211.292 49.9859C212.566 50.2513 213.84 50.4637 215.858 50.4637C217.185 50.4637 218.724 50.4637 219.521 47.9685C219.998 46.429 220.476 41.7572 220.689 37.8817H214.849C214.583 39.3151 214.477 39.846 214.159 41.1732L208.266 40.3238C209.434 35.1742 210.814 28.5913 210.973 21.2651L214.371 22.433H220.529V17.9205H209.168V12.3994H226.369V28.1135H216.176C215.964 29.9716 215.858 30.6086 215.592 32.2013H226.635ZM249.038 37.8817H243.251C243.357 40.0053 243.676 41.1201 244.472 42.9782C246.277 41.4387 247.498 40.1645 249.038 37.8817Z" fill="#3B2502"/>
<path d="M290.008 21.1058V17.1242H283.372V21.1058H290.008ZM307.581 25.406H266.49V12.8241H307.581V25.406ZM301.9 21.1058V17.1242H295.317V21.1058H301.9ZM278.117 21.1058V17.1242H271.958V21.1058H278.117ZM307.103 52.3218L303.174 56.9404C298.29 55.7194 293.99 53.8082 289.796 50.1982L291.707 47.7562H281.567L283.956 50.1451C284.116 50.3044 284.169 50.5699 284.169 50.7291C284.169 51.3131 283.425 51.26 282.311 51.3131C280.877 52.1094 278.276 53.649 277.373 54.1799C276.949 54.4453 274.188 55.7725 269.994 57.1528L265.959 52.4279C268.083 52.0032 273.339 50.8884 277.373 47.7562H270.684V27.6888H303.015V47.7562H295.317C299.033 50.3575 303.705 51.6847 307.103 52.3218ZM297.228 38.5719V36.2891H276.418V38.5719H297.228ZM297.228 33.2631V31.1395H276.418V33.2631H297.228ZM297.228 43.8807V41.5979H276.418V43.8807H297.228Z" fill="#3B2502"/>
<path d="M361 51.5254L356.912 55.7725C353.568 53.1712 351.497 51.2069 348.949 48.1278C346.029 51.5254 343.693 53.4366 339.818 55.9318L335.358 51.6847V56.5157H329.996V47.7031C326.97 48.5525 320.494 50.3044 318.848 50.676C318.37 50.7822 317.255 50.9946 317.096 51.2069C316.777 51.5254 316.565 51.7378 316.406 51.7378C316.14 51.7378 315.981 51.5254 315.875 50.8353L315.025 46.0043C316.512 45.7919 316.671 45.7388 318.264 45.5265V17.5489H314.972V12.4524H339.446V16.4341H355.956L359.036 19.2477C358.133 33.1569 354.523 39.5275 352.187 43.5622C354.576 46.3228 356.7 48.3401 361 51.5254ZM352.93 21.6898H339.021V17.5489H335.358V51.0476C340.242 49.0303 342.791 47.066 345.657 43.456C341.994 37.2978 340.189 32.626 338.49 24.822L343.799 23.017C345.233 31.1926 346.56 34.4841 348.683 38.4657C351.338 32.8384 352.453 28.432 352.93 21.6898ZM329.996 33.2631V27.7419H323.944V33.2631H329.996ZM329.996 22.9639V17.5489H323.944V22.9639H329.996ZM329.996 43.5622V37.9348H323.944V44.624C327.926 43.9338 328.669 43.7745 329.996 43.5622Z" fill="#3B2502"/>
<path d="M141.323 39.9754L140.023 41.461C139.218 40.5325 138.475 39.8516 137.454 39.1088L138.754 37.6232C140.054 38.5826 140.673 39.2326 141.323 39.9754ZM138.816 42.7919L137.516 44.2775C136.835 43.4419 136.185 42.8229 134.978 41.8944L136.247 40.4087C137.268 41.1825 138.042 41.8324 138.816 42.7919ZM139.837 34.7138C138.382 34.8067 134.978 35.0233 131.047 38.985C128.757 41.2753 127.271 44.0609 127.271 46.4131C127.271 48.5487 128.633 49.8177 129.499 50.4367C131.511 51.8605 133.678 51.9533 134.947 52.0152L133.74 55.7912C132.099 55.5126 128.633 54.8627 126.126 52.3557C124.64 50.901 123.835 48.8892 123.835 46.7845C123.835 44.7109 124.609 42.6372 125.94 40.6254C127.395 38.366 128.942 36.9113 130.026 35.9209C125.878 36.2613 121.328 36.6327 118.233 37.0661L117.707 33.5996C124.393 33.6615 133.987 32.9187 139.837 31.1235V34.7138Z" fill="#3B2502"/>
<path fill-rule="evenodd" clip-rule="evenodd" d="M141.837 39.9754L140.021 42.0501L139.73 41.7144C138.945 40.8086 138.224 40.1475 137.226 39.4217L136.884 39.1726L138.697 37.1004L138.983 37.3119C140.31 38.2913 140.95 38.9615 141.614 39.7206L141.837 39.9754ZM139.321 42.802L137.505 44.8771L137.216 44.5219C136.559 43.7154 135.932 43.1167 134.742 42.201L134.419 41.9527L136.189 39.88L136.48 40.1003C137.511 40.8812 138.314 41.5534 139.117 42.549L139.321 42.802ZM140.224 35.0768L139.862 35.0999C139.143 35.1457 137.974 35.2206 136.504 35.7616C135.034 36.3025 133.248 37.3155 131.322 39.2575L131.321 39.2585C129.067 41.5123 127.658 44.2051 127.658 46.4131C127.658 48.3618 128.895 49.5297 129.724 50.1216C131.624 51.4659 133.673 51.5657 134.944 51.6277L135.469 51.6533L134.006 56.2288L133.675 56.1726C132.034 55.894 128.455 55.2312 125.854 52.6307C124.291 51.0993 123.449 48.9866 123.449 46.7845C123.449 44.6136 124.258 42.4671 125.616 40.4139C126.76 38.6382 127.96 37.3508 128.949 36.3975C125.115 36.7132 121.096 37.0559 118.287 37.4492L117.908 37.5022L117.257 33.2085L117.711 33.2127C124.382 33.2745 133.93 32.5315 139.723 30.7537L140.224 30.6001V35.0768ZM129.399 35.9723C129.561 35.959 129.723 35.9457 129.885 35.9324L130.026 35.9209C129.88 36.0542 129.726 36.1959 129.564 36.3469C128.527 37.3175 127.199 38.6701 125.94 40.6254C124.609 42.6371 123.835 44.7108 123.835 46.7845C123.835 48.8892 124.64 50.901 126.126 52.3556C128.633 54.8626 132.099 55.5126 133.74 55.7912L134.947 52.0152L134.911 52.0134C134.796 52.0079 134.675 52.0019 134.547 51.9948C133.253 51.9221 131.313 51.7203 129.499 50.4367C128.633 49.8177 127.271 48.5487 127.271 46.4131C127.271 44.0609 128.757 41.2753 131.047 38.985C134.977 35.024 138.381 34.8067 139.836 34.7138L139.837 31.1235C139.71 31.1626 139.581 31.2011 139.45 31.2391C133.688 32.9167 124.615 33.6316 118.099 33.6023C117.967 33.6017 117.837 33.6008 117.707 33.5996L118.233 37.066C121.173 36.6545 125.425 36.2987 129.399 35.9723ZM137.765 39.3401C138.527 39.9176 139.138 40.4769 139.764 41.169C139.85 41.2637 139.936 41.3609 140.023 41.461L141.323 39.9754C140.673 39.2326 140.054 38.5826 138.754 37.6231L137.454 39.1088C137.561 39.1864 137.664 39.2634 137.765 39.3401ZM137.264 43.9774C136.726 43.354 136.162 42.825 135.283 42.1322C135.185 42.0551 135.084 41.9759 134.978 41.8943L136.247 40.4087C137.268 41.1825 138.042 41.8324 138.816 42.7919L137.516 44.2775C137.432 44.1745 137.348 44.0748 137.264 43.9774Z" fill="#3B2502"/>
<path d="M3.27505 50.9742L3.33919 51.092L3.43069 50.994C3.82727 50.5691 3.97144 50.4382 4.2372 50.1969C4.31618 50.1252 4.40591 50.0438 4.5162 49.9419C7.49283 53.0824 8.6253 54.2948 9.93249 55.6944C10.1477 55.9248 10.3677 56.1603 10.6014 56.4104L10.6464 56.4585L10.7077 56.4342L14.8087 54.8093L14.8692 54.7853L14.8697 54.7202C14.8973 51.3637 14.9052 50.0418 14.9214 47.3461C14.9279 46.2648 14.9357 44.9624 14.9467 43.219C14.9517 43.2172 14.9567 43.2153 14.9617 43.2135C16.3247 42.7069 18.5112 41.8943 20.731 41.8943C22.4664 41.8943 23.7847 42.5228 24.6696 43.4645C25.5557 44.4075 26.012 45.6696 26.012 46.9431C26.012 49.6154 24.4531 50.9473 23.1297 50.9473C22.8439 50.9473 22.6171 50.8876 22.4293 50.7785C22.2411 50.6691 22.0858 50.5065 21.9492 50.291C21.6728 49.8553 21.4829 49.2225 21.2494 48.4248L21.2196 48.3228L21.1208 48.3621L17.5228 49.7935L17.4485 49.8231L17.4636 49.9016C17.7334 51.3085 18.0069 52.7049 18.7568 53.7459C19.5143 54.7974 20.7466 55.4738 22.8976 55.4738C27.1055 55.4738 30.229 51.6616 30.229 46.8657C30.229 44.4254 29.3893 42.1947 27.7879 40.5737C26.186 38.9522 23.829 37.9481 20.8084 37.9481C18.1462 37.9481 16.0986 38.4906 14.9484 38.8073L14.985 35.1842C16.7423 34.8394 18.5493 34.4492 20.9589 33.5313L21.0212 33.5075V33.4409V29.0304V28.8789L20.8837 28.9427C18.7595 29.9289 17.4587 30.392 15.0692 30.9206C15.0761 30.7669 15.0849 30.5492 15.0953 30.2915C15.1158 29.7821 15.1426 29.1162 15.1743 28.4791C15.2009 27.9449 15.231 27.4276 15.2642 27.0297C15.2807 26.8305 15.2979 26.6627 15.3156 26.5381C15.3244 26.4757 15.3332 26.4257 15.3417 26.3888C15.3491 26.3567 15.3546 26.3422 15.3562 26.3382C15.3567 26.337 15.3568 26.3367 15.3565 26.3372C15.3608 26.3306 15.3729 26.3161 15.396 26.2922C15.4179 26.2695 15.4457 26.2424 15.4781 26.2115C15.5022 26.1886 15.5289 26.1634 15.5571 26.1369C15.6032 26.0934 15.6532 26.0464 15.7011 26C15.779 25.9246 15.8571 25.8454 15.9163 25.774C15.9458 25.7384 15.9725 25.7024 15.9923 25.6681C16.0106 25.6365 16.0304 25.594 16.0304 25.5485V25.5448C16.0304 25.498 16.0304 25.4325 16.0092 25.3634C15.9865 25.2895 15.9414 25.2169 15.8597 25.1497C15.7023 25.0205 15.4082 24.9114 14.8641 24.8337L14.8634 24.8336L10.569 24.2533L10.4576 24.2382L10.4593 24.3506C10.492 26.4789 10.4971 27.0549 10.5213 29.8332C10.5255 30.3142 10.5303 30.8611 10.5359 31.4936C9.47308 31.5668 8.90114 31.6032 7.96389 31.6032C6.18816 31.6032 5.26312 31.526 4.18274 31.4103L4.06036 31.3972L4.07656 31.5192L4.65688 35.891L4.66764 35.972L4.74931 35.9749C6.88718 36.0512 8.27466 36.0147 10.5375 35.7915L10.5749 40.618C8.02053 41.9909 7.2507 42.4396 0.947497 46.5137L0.872148 46.5624L0.91506 46.6411L3.27505 50.9742ZM33.1507 34.9294L33.2061 34.8535L33.1319 34.7959C31.2324 33.3228 28.6699 31.5752 25.4842 30.4097L25.4162 30.3848L25.3732 30.4431L22.8585 33.8477L22.782 33.9512L22.9027 33.9958C26.759 35.4227 28.7609 36.8862 30.4945 38.3887L30.5739 38.4575L30.636 38.3726L33.1507 34.9294ZM59.9795 24.5545L59.9928 24.4477L59.8852 24.4459C55.4405 24.3686 52.7785 24.1755 48.2998 23.0945L48.1709 23.0634L48.1806 23.1955L48.5288 27.9542L48.5345 28.0317L48.6113 28.0428C52.6002 28.6238 56.8983 28.9335 59.3389 29.011L59.4271 29.0138L59.4379 28.9262L59.9795 24.5545ZM50.7937 57.4494L50.8373 57.5037L50.9026 57.4797C50.9503 57.4621 50.9986 57.4444 51.0474 57.4265C53.6839 56.4581 57.756 54.9625 61.0027 51.0282L60.9281 50.9667L61.0028 51.0282C63.5706 47.9157 64.9711 43.9863 64.9711 39.9405C64.9711 38.3115 64.701 35.958 63.2826 34.3821C61.5135 32.4164 59.0793 32.2222 58.0652 32.2222C55.5739 32.2222 52.4769 32.961 49.6509 33.8369C46.9429 34.6762 44.4751 35.6441 43.0139 36.2172C42.9491 36.2426 42.8862 36.2673 42.8254 36.2911L42.735 36.3266L42.7708 36.4168L44.5505 40.9047L44.5891 41.0021L44.6832 40.9558L44.8038 40.8962C46.2224 40.1965 48.4207 39.1122 50.6641 38.1923C52.9769 37.2439 55.3205 36.4779 56.9046 36.4779C57.4884 36.4779 58.3348 36.6479 59.0334 37.2293C59.7283 37.8076 60.2898 38.8035 60.2898 40.4821C60.2898 43.2784 59.1022 45.811 57.4872 47.8106C54.2964 51.6932 50.1442 52.9247 47.8634 53.5819L47.7239 53.6221L47.8147 53.7354L50.7937 57.4494ZM83.1197 56.9129L83.1403 56.984L83.2143 56.9827C85.439 56.944 88.0158 56.8762 90.463 56.6C92.9083 56.324 95.2341 55.8389 96.9523 54.9603C100.388 53.2035 102.421 49.9599 102.421 46.208C102.421 41.4232 98.5357 38.2962 93.7358 38.2962C92.1595 38.2962 89.5056 38.7121 85.7026 41.1476C86.4403 38.6903 87.1969 35.8487 87.5071 34.6494C92.3067 33.956 94.8213 33.3354 98.2189 32.0613L98.2817 32.0377V31.9707V27.7537V27.599L98.1426 27.6667C95.2436 29.0781 92.9872 29.8104 88.5256 30.6489C88.7717 29.6251 89.5928 26.2748 89.7955 25.4964C89.8943 25.4418 89.9955 25.3986 90.095 25.359C90.1225 25.3481 90.1503 25.3373 90.1779 25.3265C90.2594 25.2948 90.34 25.2634 90.4113 25.2296C90.5077 25.184 90.5997 25.1285 90.6673 25.0489C90.7375 24.9662 90.7761 24.8639 90.7761 24.736C90.7761 24.6333 90.7242 24.5494 90.6582 24.4849C90.5926 24.4207 90.506 24.3682 90.417 24.325C90.2401 24.2391 90.0305 24.1792 89.8964 24.1409L89.8935 24.1401L89.8936 24.1399L89.8885 24.1388L85.478 23.1329L85.3701 23.1082L85.3602 23.2185C85.0934 26.1909 84.4125 29.3533 83.9859 31.1823C83.3882 31.2194 82.7555 31.255 82.0519 31.255C81.8217 31.255 79.3159 31.2549 76.6574 30.6385L76.5214 30.6069L76.5397 30.7454L77.0813 34.8463L77.0914 34.9223L77.1676 34.9299C78.7199 35.0851 80.4646 35.0851 80.8135 35.0851H80.8139H80.8159C81.5093 35.0851 82.3108 35.0851 83.0863 35.0195C82.4622 37.5508 81.3949 41.7496 80.1048 45.0508L80.0787 45.1177L80.1351 45.1621L83.385 47.7155L83.4502 47.7667L83.5107 47.7101C84.9816 46.3361 86.5041 44.9392 88.1019 43.8852C89.6993 42.8315 91.3635 42.1264 93.1168 42.1264C95.7496 42.1264 98.0495 43.8781 98.0495 46.4401C98.0495 48.0066 97.1917 49.5648 95.376 50.7355C93.5588 51.9071 90.7837 52.6883 86.9654 52.6883C86.5019 52.6883 84.3019 52.6882 81.9484 52.3796L81.8018 52.3604L81.843 52.5024L83.1197 56.9129ZM7.29004 47.6188C8.78511 46.5183 9.58264 46.0167 10.5753 45.4127V51.0211C9.83224 50.3512 8.42492 49.0217 7.29004 47.6188Z" fill="#3B2502" stroke="#3B2502" stroke-width="0.193441"/>
<path d="M3.29297 17.905L72.0628 3L133.998 17.905" stroke="#E1720B" stroke-width="4.81555" stroke-linecap="round" stroke-linejoin="round"/>
</svg>
